<mxfile host="65bd71144e">
    <diagram id="tw_YrRcqaz5zPPrhsamY" name="第 1 页">
        <mxGraphModel dx="2550" dy="1152" grid="1" gridSize="10" guides="1" tooltips="1" connect="1" arrows="1" fold="1" page="1" pageScale="1" pageWidth="827" pageHeight="1169" math="0" shadow="0">
            <root>
                <mxCell id="0"/>
                <mxCell id="1" parent="0"/>
                <mxCell id="5" style="edgeStyle=none;html=1;exitX=0.25;exitY=1;exitDx=0;exitDy=0;entryX=0.5;entryY=0;entryDx=0;entryDy=0;" edge="1" parent="1" source="2" target="3">
                    <mxGeometry relative="1" as="geometry"/>
                </mxCell>
                <mxCell id="2" value="fiberRoot" style="rounded=1;whiteSpace=wrap;html=1;fontSize=14;" vertex="1" parent="1">
                    <mxGeometry x="80" y="160" width="120" height="60" as="geometry"/>
                </mxCell>
                <mxCell id="9" value="alternate" style="edgeStyle=none;html=1;exitX=1;exitY=0.5;exitDx=0;exitDy=0;entryX=0;entryY=0.5;entryDx=0;entryDy=0;fontSize=14;" edge="1" parent="1" source="3" target="4">
                    <mxGeometry y="10" relative="1" as="geometry">
                        <mxPoint as="offset"/>
                    </mxGeometry>
                </mxCell>
                <mxCell id="44" style="edgeStyle=none;html=1;exitX=0.75;exitY=0;exitDx=0;exitDy=0;entryX=0.5;entryY=1;entryDx=0;entryDy=0;fontSize=14;" edge="1" parent="1" source="3" target="2">
                    <mxGeometry relative="1" as="geometry"/>
                </mxCell>
                <mxCell id="3" value="rootFiber" style="rounded=1;whiteSpace=wrap;html=1;fontSize=14;" vertex="1" parent="1">
                    <mxGeometry x="-40" y="280" width="120" height="60" as="geometry"/>
                </mxCell>
                <mxCell id="10" value="alternate" style="edgeStyle=none;html=1;exitX=0;exitY=0.75;exitDx=0;exitDy=0;entryX=1;entryY=0.75;entryDx=0;entryDy=0;fontSize=14;" edge="1" parent="1" source="4" target="3">
                    <mxGeometry y="15" relative="1" as="geometry">
                        <mxPoint as="offset"/>
                    </mxGeometry>
                </mxCell>
                <mxCell id="21" value="child" style="edgeStyle=none;html=1;exitX=0.5;exitY=1;exitDx=0;exitDy=0;entryX=0.5;entryY=0;entryDx=0;entryDy=0;fontSize=14;" edge="1" parent="1" source="4" target="12">
                    <mxGeometry y="-20" relative="1" as="geometry">
                        <mxPoint as="offset"/>
                    </mxGeometry>
                </mxCell>
                <mxCell id="4" value="rootFiber" style="rounded=1;whiteSpace=wrap;html=1;fontSize=14;" vertex="1" parent="1">
                    <mxGeometry x="200" y="280" width="120" height="60" as="geometry"/>
                </mxCell>
                <mxCell id="7" value="current" style="text;html=1;strokeColor=none;fillColor=none;align=center;verticalAlign=middle;whiteSpace=wrap;rounded=0;fontSize=14;" vertex="1" parent="1">
                    <mxGeometry x="10" y="230" width="60" height="30" as="geometry"/>
                </mxCell>
                <mxCell id="8" value="stateNode" style="text;html=1;strokeColor=none;fillColor=none;align=center;verticalAlign=middle;whiteSpace=wrap;rounded=0;fontSize=14;" vertex="1" parent="1">
                    <mxGeometry x="90" y="250" width="60" height="30" as="geometry"/>
                </mxCell>
                <mxCell id="11" value="workInProgress" style="text;html=1;strokeColor=none;fillColor=none;align=center;verticalAlign=middle;whiteSpace=wrap;rounded=0;fontSize=14;" vertex="1" parent="1">
                    <mxGeometry x="230" y="240" width="60" height="30" as="geometry"/>
                </mxCell>
                <mxCell id="22" value="return" style="edgeStyle=none;html=1;exitX=0.75;exitY=0;exitDx=0;exitDy=0;entryX=0.75;entryY=1;entryDx=0;entryDy=0;fontSize=14;" edge="1" parent="1" source="12" target="4">
                    <mxGeometry y="-30" relative="1" as="geometry">
                        <mxPoint as="offset"/>
                    </mxGeometry>
                </mxCell>
                <mxCell id="12" value="App" style="rounded=1;whiteSpace=wrap;html=1;fontSize=14;" vertex="1" parent="1">
                    <mxGeometry x="200" y="400" width="120" height="60" as="geometry"/>
                </mxCell>
                <mxCell id="13" value="div" style="rounded=1;whiteSpace=wrap;html=1;fontSize=14;" vertex="1" parent="1">
                    <mxGeometry x="200" y="520" width="120" height="60" as="geometry"/>
                </mxCell>
                <mxCell id="14" value="main" style="rounded=1;whiteSpace=wrap;html=1;fontSize=14;" vertex="1" parent="1">
                    <mxGeometry x="200" y="640" width="120" height="60" as="geometry"/>
                </mxCell>
                <mxCell id="32" value="sibling" style="edgeStyle=none;html=1;exitX=1;exitY=0.5;exitDx=0;exitDy=0;entryX=0;entryY=0.5;entryDx=0;entryDy=0;fontSize=14;" edge="1" parent="1" source="15" target="16">
                    <mxGeometry y="-10" relative="1" as="geometry">
                        <Array as="points">
                            <mxPoint x="360" y="790"/>
                        </Array>
                        <mxPoint as="offset"/>
                    </mxGeometry>
                </mxCell>
                <mxCell id="15" value="img" style="rounded=1;whiteSpace=wrap;html=1;fontSize=14;" vertex="1" parent="1">
                    <mxGeometry x="200" y="760" width="120" height="60" as="geometry"/>
                </mxCell>
                <mxCell id="40" style="edgeStyle=none;html=1;exitX=0;exitY=0;exitDx=0;exitDy=0;entryX=0.75;entryY=1;entryDx=0;entryDy=0;fontSize=14;" edge="1" parent="1" source="16" target="14">
                    <mxGeometry relative="1" as="geometry"/>
                </mxCell>
                <mxCell id="16" value="h1" style="rounded=1;whiteSpace=wrap;html=1;fontSize=14;" vertex="1" parent="1">
                    <mxGeometry x="400" y="760" width="120" height="60" as="geometry"/>
                </mxCell>
                <mxCell id="41" style="edgeStyle=none;html=1;exitX=0.25;exitY=0;exitDx=0;exitDy=0;entryX=0.75;entryY=1;entryDx=0;entryDy=0;fontSize=14;" edge="1" parent="1" source="17" target="14">
                    <mxGeometry relative="1" as="geometry"/>
                </mxCell>
                <mxCell id="17" value="'count'" style="rounded=1;whiteSpace=wrap;html=1;fontSize=14;" vertex="1" parent="1">
                    <mxGeometry x="600" y="760" width="120" height="60" as="geometry"/>
                </mxCell>
                <mxCell id="42" style="edgeStyle=none;html=1;exitX=0.5;exitY=0;exitDx=0;exitDy=0;entryX=0.75;entryY=1;entryDx=0;entryDy=0;fontSize=14;" edge="1" parent="1" source="18" target="14">
                    <mxGeometry relative="1" as="geometry"/>
                </mxCell>
                <mxCell id="18" value="..." style="rounded=1;whiteSpace=wrap;html=1;fontSize=14;" vertex="1" parent="1">
                    <mxGeometry x="800" y="760" width="120" height="60" as="geometry"/>
                </mxCell>
                <mxCell id="19" value="'hello'" style="rounded=1;whiteSpace=wrap;html=1;fontSize=14;" vertex="1" parent="1">
                    <mxGeometry x="400" y="880" width="120" height="60" as="geometry"/>
                </mxCell>
                <mxCell id="39" style="edgeStyle=none;html=1;exitX=0.25;exitY=0;exitDx=0;exitDy=0;fontSize=14;" edge="1" parent="1" source="20">
                    <mxGeometry relative="1" as="geometry">
                        <mxPoint x="490" y="820" as="targetPoint"/>
                    </mxGeometry>
                </mxCell>
                <mxCell id="20" value="span" style="rounded=1;whiteSpace=wrap;html=1;fontSize=14;" vertex="1" parent="1">
                    <mxGeometry x="600" y="880" width="120" height="60" as="geometry"/>
                </mxCell>
                <mxCell id="26" value="child" style="edgeStyle=none;html=1;entryX=0.5;entryY=0;entryDx=0;entryDy=0;fontSize=14;exitX=0.5;exitY=1;exitDx=0;exitDy=0;" edge="1" parent="1" source="12" target="13">
                    <mxGeometry y="-20" relative="1" as="geometry">
                        <mxPoint x="340" y="490" as="sourcePoint"/>
                        <mxPoint x="259" y="520" as="targetPoint"/>
                        <mxPoint as="offset"/>
                    </mxGeometry>
                </mxCell>
                <mxCell id="27" value="return" style="edgeStyle=none;html=1;fontSize=14;entryX=0.75;entryY=1;entryDx=0;entryDy=0;exitX=0.75;exitY=0;exitDx=0;exitDy=0;" edge="1" parent="1" source="13" target="12">
                    <mxGeometry y="-30" relative="1" as="geometry">
                        <mxPoint x="290" y="520" as="sourcePoint"/>
                        <mxPoint x="350" y="470" as="targetPoint"/>
                        <mxPoint as="offset"/>
                    </mxGeometry>
                </mxCell>
                <mxCell id="28" value="child" style="edgeStyle=none;html=1;entryX=0.5;entryY=0;entryDx=0;entryDy=0;fontSize=14;exitX=0.5;exitY=1;exitDx=0;exitDy=0;" edge="1" parent="1">
                    <mxGeometry y="-20" relative="1" as="geometry">
                        <mxPoint x="259" y="580" as="sourcePoint"/>
                        <mxPoint x="259" y="640" as="targetPoint"/>
                        <mxPoint as="offset"/>
                    </mxGeometry>
                </mxCell>
                <mxCell id="29" value="return" style="edgeStyle=none;html=1;fontSize=14;entryX=0.75;entryY=1;entryDx=0;entryDy=0;exitX=0.75;exitY=0;exitDx=0;exitDy=0;" edge="1" parent="1">
                    <mxGeometry y="-30" relative="1" as="geometry">
                        <mxPoint x="289" y="640" as="sourcePoint"/>
                        <mxPoint x="289" y="580" as="targetPoint"/>
                        <mxPoint as="offset"/>
                    </mxGeometry>
                </mxCell>
                <mxCell id="30" value="child" style="edgeStyle=none;html=1;entryX=0.5;entryY=0;entryDx=0;entryDy=0;fontSize=14;exitX=0.5;exitY=1;exitDx=0;exitDy=0;" edge="1" parent="1">
                    <mxGeometry y="-20" relative="1" as="geometry">
                        <mxPoint x="259" y="700" as="sourcePoint"/>
                        <mxPoint x="259" y="760" as="targetPoint"/>
                        <mxPoint as="offset"/>
                    </mxGeometry>
                </mxCell>
                <mxCell id="31" value="return" style="edgeStyle=none;html=1;fontSize=14;entryX=0.75;entryY=1;entryDx=0;entryDy=0;exitX=0.75;exitY=0;exitDx=0;exitDy=0;" edge="1" parent="1">
                    <mxGeometry x="0.3333" y="-41" relative="1" as="geometry">
                        <mxPoint x="289" y="760" as="sourcePoint"/>
                        <mxPoint x="289" y="700" as="targetPoint"/>
                        <mxPoint as="offset"/>
                    </mxGeometry>
                </mxCell>
                <mxCell id="34" value="sibling" style="edgeStyle=none;html=1;exitX=1;exitY=0.5;exitDx=0;exitDy=0;entryX=0;entryY=0.5;entryDx=0;entryDy=0;fontSize=14;" edge="1" parent="1" source="16" target="17">
                    <mxGeometry y="-10" relative="1" as="geometry">
                        <mxPoint x="330" y="800" as="sourcePoint"/>
                        <mxPoint x="410" y="800" as="targetPoint"/>
                        <Array as="points"/>
                        <mxPoint as="offset"/>
                    </mxGeometry>
                </mxCell>
                <mxCell id="35" value="sibling" style="edgeStyle=none;html=1;exitX=1;exitY=0.5;exitDx=0;exitDy=0;entryX=0;entryY=0.5;entryDx=0;entryDy=0;fontSize=14;" edge="1" parent="1" source="17" target="18">
                    <mxGeometry y="-10" relative="1" as="geometry">
                        <mxPoint x="530" y="800" as="sourcePoint"/>
                        <mxPoint x="610" y="800" as="targetPoint"/>
                        <Array as="points"/>
                        <mxPoint as="offset"/>
                    </mxGeometry>
                </mxCell>
                <mxCell id="36" value="sibling" style="edgeStyle=none;html=1;exitX=1;exitY=0.5;exitDx=0;exitDy=0;entryX=0;entryY=0.5;entryDx=0;entryDy=0;fontSize=14;" edge="1" parent="1" source="19" target="20">
                    <mxGeometry y="-10" relative="1" as="geometry">
                        <mxPoint x="540" y="810" as="sourcePoint"/>
                        <mxPoint x="620" y="810" as="targetPoint"/>
                        <Array as="points"/>
                        <mxPoint as="offset"/>
                    </mxGeometry>
                </mxCell>
                <mxCell id="37" value="child" style="edgeStyle=none;html=1;entryX=0.5;entryY=0;entryDx=0;entryDy=0;fontSize=14;exitX=0.5;exitY=1;exitDx=0;exitDy=0;" edge="1" parent="1">
                    <mxGeometry y="-20" relative="1" as="geometry">
                        <mxPoint x="460" y="820" as="sourcePoint"/>
                        <mxPoint x="460" y="880" as="targetPoint"/>
                        <mxPoint as="offset"/>
                    </mxGeometry>
                </mxCell>
                <mxCell id="38" value="return" style="edgeStyle=none;html=1;fontSize=14;entryX=0.75;entryY=1;entryDx=0;entryDy=0;exitX=0.75;exitY=0;exitDx=0;exitDy=0;" edge="1" parent="1">
                    <mxGeometry y="-30" relative="1" as="geometry">
                        <mxPoint x="490" y="880" as="sourcePoint"/>
                        <mxPoint x="490" y="820" as="targetPoint"/>
                        <mxPoint as="offset"/>
                    </mxGeometry>
                </mxCell>
                <mxCell id="43" value="首屏渲染时，rootFiber在createWorkInProgress中完成workInProgress fiber的创建，并用alternate建立连接，最后将workInProgress fiber赋值到全局变量workInProgress&lt;br&gt;&lt;br&gt;下一步进入workLoopSync的while循环（条件为workInProgress !== null），为全局变量workInProgress执行beginWork，返回App的fiber赋值到全局变量workInProgress，return，进入while循环的下一轮&lt;br&gt;&lt;br&gt;为workInProgress（App）执行beginWork，返回child（div的fiber）赋值到全局变量workInProgress，return...&lt;br&gt;&lt;br&gt;为workInProgress（div）执行beginWork，返回child（main的fiber）赋值到全局变量workInProgress，return...&lt;br&gt;&lt;br&gt;为workInProgress（main）执行beginWork，返回child（img的fiber）赋值到全局变量workInProgress，return...&lt;br&gt;&lt;br&gt;为workInProgress（img）执行beginWork，img没有child&lt;br&gt;为img执行completeWork，然后将sibling（h1的fiber）赋值到全局变量workInProgress，return...&lt;br&gt;&lt;br&gt;为workInProgress（h1）执行beginWork，返回child（'hello'的fiber）赋值到全局变量workInProgress，return...&lt;br&gt;&lt;br&gt;为workInProgress（'hello'）执行beginWork，'hello'没有child&lt;br&gt;为'hello'执行completeWork，然后将sibling（span的fiber）赋值到全局变量workInProgress，return...&lt;br&gt;&lt;br&gt;为workInProgress（span）执行beginWork，span没有fiber意义上的child（只有单一文本子级，不会创建fiber）&lt;br&gt;为span执行completeWork，span没有sibling，将span的return（h1的fiber）赋值到全局变量completeWork，进入下一轮局部do while循环（条件是completeWork !== null）&lt;br&gt;&lt;br&gt;为h1执行completeWork，然后将h1的sibling（'count'的fiber）赋值到全局变量workInProgress，return，进入while循环的下一轮&lt;br&gt;&lt;br&gt;...&lt;br&gt;&lt;br&gt;采用深度优先的便利原则，直到将第一颗workInProgress fiber树构建完成" style="text;html=1;strokeColor=none;fillColor=none;align=left;verticalAlign=top;whiteSpace=wrap;rounded=0;fontSize=14;" vertex="1" parent="1">
                    <mxGeometry x="-780" y="360" width="700" height="690" as="geometry"/>
                </mxCell>
            </root>
        </mxGraphModel>
    </diagram>
</mxfile>